<svg width="235" height="51" viewBox="0 0 235 51" fill="none" xmlns="http://www.w3.org/2000/svg">
<circle cx="25.5474" cy="25.5474" r="24.8107" fill="url(#paint0_linear_2001_233)" stroke="url(#paint1_linear_2001_233)" stroke-width="0.526653"/>
<g clip-path="url(#clip0_2001_233)">
<path d="M24.7434 13.2804C24.6907 13.2852 24.5227 13.302 24.3715 13.314C20.885 13.6283 17.6192 15.5093 15.5508 18.4003C14.399 20.0078 13.6623 21.8311 13.384 23.7625C13.2856 24.4367 13.2736 24.6358 13.2736 25.5499C13.2736 26.464 13.2856 26.6631 13.384 27.3373C14.0511 31.9462 17.3312 35.8185 21.78 37.2532C22.5767 37.5099 23.4165 37.685 24.3715 37.7906C24.7434 37.8314 26.3511 37.8314 26.7231 37.7906C28.3716 37.6083 29.7681 37.2004 31.1454 36.4974C31.3566 36.3895 31.3974 36.3607 31.3686 36.3367C31.3494 36.3223 30.4496 35.1155 29.3698 33.6568L27.4069 31.0057L24.9474 27.3661C23.5941 25.3652 22.4807 23.7289 22.4711 23.7289C22.4615 23.7265 22.4519 25.3436 22.4471 27.3181C22.4399 30.7753 22.4375 30.9145 22.3943 30.9961C22.3319 31.1136 22.2839 31.1616 22.1831 31.2144C22.1063 31.2528 22.0392 31.26 21.6768 31.26H21.2617L21.1513 31.1904C21.0793 31.1448 21.0265 31.0848 20.9906 31.0153L20.9402 30.9073L20.945 26.0969L20.9522 21.2841L21.0265 21.1906C21.0649 21.1402 21.1465 21.0754 21.2041 21.0442C21.3025 20.9962 21.3409 20.9914 21.756 20.9914C22.2455 20.9914 22.3271 21.0106 22.4543 21.1498C22.4903 21.1882 23.822 23.1939 25.4153 25.6099C27.0086 28.0259 29.1874 31.3248 30.2576 32.9442L32.2012 35.888L32.2996 35.8233C33.1707 35.257 34.0921 34.4509 34.8216 33.6112C36.3741 31.8286 37.3747 29.6549 37.7106 27.3373C37.809 26.6631 37.821 26.464 37.821 25.5499C37.821 24.6358 37.809 24.4367 37.7106 23.7625C37.0435 19.1536 33.7633 15.2813 29.3146 13.8466C28.5299 13.5923 27.6949 13.4172 26.7591 13.3116C26.5287 13.2876 24.9426 13.2612 24.7434 13.2804ZM29.7681 20.7035C29.8833 20.7611 29.9769 20.8715 30.0105 20.9866C30.0297 21.049 30.0345 22.383 30.0297 25.3892L30.0225 29.7029L29.2618 28.5369L28.4987 27.3709V24.2351C28.4987 22.2078 28.5083 21.0682 28.5227 21.013C28.5611 20.8787 28.6451 20.7731 28.7603 20.7107C28.8587 20.6603 28.8947 20.6555 29.2714 20.6555C29.6265 20.6555 29.6889 20.6603 29.7681 20.7035Z" fill="white"/>
</g>
<circle cx="71.5474" cy="25.5474" r="24.8107" fill="url(#paint2_linear_2001_233)" stroke="url(#paint3_linear_2001_233)" stroke-width="0.526653"/>
<path fill-rule="evenodd" clip-rule="evenodd" d="M71.6074 18.5513C68.0775 18.5513 65.8719 20.3273 64.989 23.8793C66.3128 22.1033 67.857 21.4374 69.6217 21.8812C70.6286 22.1343 71.3486 22.8695 72.1448 23.6835C73.4427 25.0089 74.9449 26.5429 78.2253 26.5429C81.7547 26.5429 83.9609 24.7668 84.8432 21.2153C83.5199 22.9913 81.9757 23.6572 80.211 23.2129C79.2036 22.9598 78.4836 22.2246 77.6874 21.4112C76.3895 20.0847 74.8878 18.5513 71.6074 18.5513ZM64.989 26.5429C61.4596 26.5429 59.2534 28.3189 58.3711 31.8709C59.6949 30.0949 61.2391 29.429 63.0033 29.8728C64.0107 30.1259 64.7307 30.8611 65.5269 31.675C66.8248 33.0005 68.3265 34.5344 71.6074 34.5344C75.1368 34.5344 77.343 32.7589 78.2253 29.2069C76.9015 30.9829 75.3573 31.6488 73.5926 31.205C72.5857 30.9514 71.8657 30.2162 71.0695 29.4028C69.7716 28.0773 68.2694 26.5429 64.989 26.5429Z" fill="#38BDF8"/>
<circle cx="117.547" cy="25.5474" r="24.8107" fill="url(#paint4_linear_2001_233)" stroke="url(#paint5_linear_2001_233)" stroke-width="0.526653"/>
<g clip-path="url(#clip1_2001_233)">
<path d="M126.139 13.2738H108.956C106.922 13.2738 105.274 14.9223 105.274 16.9559V34.1391C105.274 36.1726 106.922 37.8212 108.956 37.8212H126.139C128.173 37.8212 129.821 36.1726 129.821 34.1391V16.9559C129.821 14.9223 128.173 13.2738 126.139 13.2738Z" fill="#3178C6"/>
<path d="M116.445 26.89H119.513V24.9243H110.931V26.89H114V35.6638H116.445V26.89ZM120.472 35.1843C120.86 35.3857 121.335 35.5343 121.863 35.635C122.39 35.7357 122.965 35.7836 123.541 35.7836C124.116 35.7836 124.643 35.7309 125.171 35.6206C125.698 35.5103 126.13 35.3282 126.513 35.0932C126.901 34.8391 127.232 34.5179 127.424 34.0864C127.616 33.6549 127.764 33.1755 127.764 32.5522C127.764 32.1159 127.697 31.7371 127.568 31.4015C127.438 31.0659 127.251 30.7783 126.993 30.5385C126.748 30.2844 126.465 30.0591 126.13 29.8673C125.794 29.6755 125.41 29.4742 124.979 29.292C124.662 29.1625 124.404 29.0379 124.116 28.9132C123.867 28.7886 123.651 28.6639 123.493 28.5393C123.315 28.4098 123.181 28.2756 123.085 28.1365C122.989 27.9927 122.941 27.8345 122.941 27.6571C122.941 27.4941 122.984 27.3455 123.071 27.2112C123.157 27.077 123.277 26.9667 123.43 26.8708C123.584 26.7749 123.775 26.703 124.006 26.6503C124.231 26.5975 124.48 26.5736 124.773 26.5736C124.974 26.5736 125.185 26.5884 125.396 26.6186C125.617 26.6488 125.842 26.6953 126.067 26.7577C126.293 26.82 126.513 26.8967 126.738 26.9926C126.949 27.0885 127.146 27.1988 127.314 27.3234V25.07C126.949 24.931 126.547 24.8255 126.115 24.7584C125.684 24.6913 125.204 24.6577 124.629 24.6577C124.054 24.6577 123.526 24.72 122.999 24.8399C122.471 24.9598 122.04 25.1515 121.656 25.4152C121.268 25.6741 120.985 25.9906 120.745 26.4221C120.52 26.8248 120.41 27.2851 120.41 27.8604C120.41 28.5795 120.616 29.2028 121.033 29.6823C121.445 30.2096 122.088 30.5932 122.903 30.9767C123.234 31.111 123.526 31.2452 123.814 31.3747C124.102 31.5041 124.341 31.6384 124.533 31.7774C124.739 31.9165 124.902 32.0699 125.012 32.2329C125.132 32.3959 125.195 32.5877 125.195 32.8082C125.195 32.9616 125.157 33.1055 125.084 33.2397C125.011 33.374 124.897 33.489 124.744 33.5849C124.591 33.6808 124.404 33.7575 124.169 33.815C123.943 33.8678 123.689 33.8965 123.354 33.8965C122.826 33.8965 122.299 33.8054 121.819 33.6233C121.292 33.4411 120.813 33.1678 120.472 32.883V35.1843Z" fill="white"/>
</g>
<circle cx="163.547" cy="25.5474" r="24.8107" fill="url(#paint6_linear_2001_233)" stroke="url(#paint7_linear_2001_233)" stroke-width="0.526653"/>
<g clip-path="url(#clip2_2001_233)">
<path fill-rule="evenodd" clip-rule="evenodd" d="M168.141 23.4036L177.555 22.8045C178.189 22.8045 178.642 23.4036 178.28 23.8315L171.672 32.3896C171.491 32.4752 171.31 32.6463 171.038 32.6463H156.193C156.08 32.6335 155.973 32.5958 155.878 32.5363C155.784 32.4769 155.706 32.3973 155.65 32.304L149.042 23.8315C148.68 23.4036 149.042 22.7189 149.676 22.8045L159.09 23.4036L163.072 19.2957C163.344 18.9534 163.978 18.9534 164.159 19.2957L168.141 23.318V23.4036ZM170.133 31.277L163.978 29.1375V31.277H170.133ZM163.253 31.277V29.1375L157.098 31.277H163.344H163.253ZM162.529 28.7096L156.284 30.8491L151.758 24.8585L162.62 28.624L162.529 28.7096ZM164.702 28.7096L171.038 30.8491L175.564 24.8585L164.702 28.624V28.7096ZM163.253 28.1961V21.0929L158.184 26.3989L163.253 28.1105V28.1961ZM163.978 28.1961V21.0929L169.137 26.3989L163.978 28.1105V28.1961ZM156.646 25.8854L157.822 24.6873L152.029 24.345L156.646 25.8854ZM170.585 25.8854L169.409 24.6873L175.111 24.345L170.585 25.8854Z" fill="#006CFF"/>
</g>
<circle cx="209.547" cy="25.5474" r="24.8107" fill="url(#paint8_linear_2001_233)" stroke="url(#paint9_linear_2001_233)" stroke-width="0.526653"/>
<g clip-path="url(#clip3_2001_233)">
<path d="M216.538 18.5207L213.948 21.0492C213.867 21.1285 213.76 21.1789 213.646 21.1923C213.532 21.2056 213.417 21.1811 213.318 21.1227C212.3 20.5227 211.125 20.2234 209.936 20.2611C208.747 20.2988 207.595 20.6717 206.618 21.3349C206.017 21.7432 205.496 22.2524 205.078 22.8389C204.399 23.7932 204.018 24.9184 203.979 26.0794C203.94 27.2404 204.245 28.3877 204.859 29.3831C204.918 29.4789 204.943 29.5913 204.929 29.7025C204.915 29.8136 204.864 29.9171 204.783 29.9964L202.194 32.5248C202.142 32.5761 202.079 32.6157 202.009 32.641C201.94 32.6664 201.866 32.6767 201.792 32.6716C201.718 32.6663 201.647 32.6456 201.582 32.6107C201.517 32.5759 201.461 32.5278 201.417 32.4697C200.016 30.5893 199.292 28.3089 199.358 25.9844C199.424 23.6599 200.276 21.4221 201.781 19.6203C202.241 19.0691 202.757 18.5651 203.322 18.1163C205.167 16.6467 207.458 15.8148 209.838 15.7504C212.219 15.686 214.554 16.3927 216.479 17.7604C216.539 17.8032 216.589 17.8582 216.625 17.9216C216.661 17.9849 216.682 18.0552 216.688 18.1275C216.694 18.1997 216.683 18.2723 216.657 18.3402C216.631 18.4081 216.59 18.4697 216.538 18.5207Z" fill="url(#paint10_linear_2001_233)"/>
<path d="M216.535 34.0291L213.946 31.5006C213.865 31.4213 213.758 31.3709 213.644 31.3576C213.53 31.3442 213.414 31.3687 213.316 31.4271C212.356 31.9928 211.255 32.2918 210.134 32.2918C209.012 32.2918 207.912 31.9928 206.951 31.4271C206.853 31.3687 206.737 31.3442 206.623 31.3576C206.509 31.3709 206.403 31.4213 206.321 31.5006L203.732 34.0291C203.678 34.08 203.635 34.1421 203.608 34.2107C203.581 34.2793 203.57 34.353 203.576 34.4264C203.581 34.4997 203.603 34.571 203.64 34.6352C203.676 34.6994 203.727 34.7549 203.788 34.7977C205.632 36.1073 207.852 36.8126 210.132 36.8126C212.411 36.8126 214.632 36.1073 216.476 34.7977C216.537 34.7552 216.588 34.6999 216.625 34.6358C216.662 34.5717 216.684 34.5005 216.69 34.4272C216.696 34.3538 216.685 34.28 216.658 34.2113C216.631 34.1425 216.59 34.0803 216.535 34.0291Z" fill="white"/>
<path d="M210.138 29.2833C211.84 29.2833 213.219 27.9366 213.219 26.2752C213.219 24.614 211.84 23.2672 210.138 23.2672C208.437 23.2672 207.058 24.614 207.058 26.2752C207.058 27.9366 208.437 29.2833 210.138 29.2833Z" fill="white"/>
</g>
<defs>
<linearGradient id="paint0_linear_2001_233" x1="11.1254" y1="1" x2="48.4914" y2="9.89991" gradientUnits="userSpaceOnUse">
<stop stop-color="#04071D"/>
<stop offset="1" stop-color="#0C0E23"/>
</linearGradient>
<linearGradient id="paint1_linear_2001_233" x1="25.5474" y1="1" x2="25.5474" y2="50.0948" gradientUnits="userSpaceOnUse">
<stop stop-color="#66699C" stop-opacity="0.43"/>
<stop offset="1" stop-color="#363749" stop-opacity="0.49"/>
</linearGradient>
<linearGradient id="paint2_linear_2001_233" x1="57.1254" y1="1" x2="94.4914" y2="9.89991" gradientUnits="userSpaceOnUse">
<stop stop-color="#04071D"/>
<stop offset="1" stop-color="#0C0E23"/>
</linearGradient>
<linearGradient id="paint3_linear_2001_233" x1="71.5474" y1="1" x2="71.5474" y2="50.0948" gradientUnits="userSpaceOnUse">
<stop stop-color="#66699C" stop-opacity="0.43"/>
<stop offset="1" stop-color="#363749" stop-opacity="0.49"/>
</linearGradient>
<linearGradient id="paint4_linear_2001_233" x1="103.125" y1="1" x2="140.491" y2="9.89991" gradientUnits="userSpaceOnUse">
<stop stop-color="#04071D"/>
<stop offset="1" stop-color="#0C0E23"/>
</linearGradient>
<linearGradient id="paint5_linear_2001_233" x1="117.547" y1="1" x2="117.547" y2="50.0948" gradientUnits="userSpaceOnUse">
<stop stop-color="#66699C" stop-opacity="0.43"/>
<stop offset="1" stop-color="#363749" stop-opacity="0.49"/>
</linearGradient>
<linearGradient id="paint6_linear_2001_233" x1="149.125" y1="1" x2="186.491" y2="9.89991" gradientUnits="userSpaceOnUse">
<stop stop-color="#04071D"/>
<stop offset="1" stop-color="#0C0E23"/>
</linearGradient>
<linearGradient id="paint7_linear_2001_233" x1="163.547" y1="1" x2="163.547" y2="50.0948" gradientUnits="userSpaceOnUse">
<stop stop-color="#66699C" stop-opacity="0.43"/>
<stop offset="1" stop-color="#363749" stop-opacity="0.49"/>
</linearGradient>
<linearGradient id="paint8_linear_2001_233" x1="195.125" y1="1" x2="232.491" y2="9.89991" gradientUnits="userSpaceOnUse">
<stop stop-color="#04071D"/>
<stop offset="1" stop-color="#0C0E23"/>
</linearGradient>
<linearGradient id="paint9_linear_2001_233" x1="209.547" y1="1" x2="209.547" y2="50.0948" gradientUnits="userSpaceOnUse">
<stop stop-color="#66699C" stop-opacity="0.43"/>
<stop offset="1" stop-color="#363749" stop-opacity="0.49"/>
</linearGradient>
<linearGradient id="paint10_linear_2001_233" x1="214.104" y1="14.2025" x2="192.786" y2="36.0364" gradientUnits="userSpaceOnUse">
<stop stop-color="#17CCFC"/>
<stop offset="0.5" stop-color="#5D31FF"/>
<stop offset="1" stop-color="#F35AFF"/>
</linearGradient>
<clipPath id="clip0_2001_233">
<rect width="24.5474" height="24.5474" fill="white" transform="translate(13.2736 13.2738)"/>
</clipPath>
<clipPath id="clip1_2001_233">
<rect width="24.5474" height="24.5474" fill="white" transform="translate(105.274 13.2738)"/>
</clipPath>
<clipPath id="clip2_2001_233">
<rect width="28.9659" height="13.693" fill="white" transform="translate(149.205 18.9062)"/>
</clipPath>
<clipPath id="clip3_2001_233">
<rect width="20.0128" height="21.0661" fill="white" transform="translate(199.353 15.7463)"/>
</clipPath>
</defs>
</svg>
